<svg width="60" height="36" viewBox="0 0 60 36" fill="none" xmlns="http://www.w3.org/2000/svg">
<path d="M10.624 25.3281C10.624 24.9601 10.656 24.5281 10.72 24.0321C10.784 23.5361 10.904 22.9761 11.08 22.3521C11.256 21.7121 11.52 21.0001 11.872 20.2161L14.824 21.2481C14.648 21.7441 14.496 22.2001 14.368 22.6161C14.24 23.0161 14.144 23.3921 14.08 23.7441C14.016 24.0801 13.984 24.4161 13.984 24.7521C13.984 25.5681 14.16 26.2401 14.512 26.7681C14.88 27.2961 15.392 27.6881 16.048 27.9441C16.704 28.2001 17.464 28.3281 18.328 28.3281C19.48 28.3281 20.392 28.1361 21.064 27.7521C21.736 27.3681 22.224 26.8321 22.528 26.1441C22.832 25.4721 23.016 24.6881 23.08 23.7921C23.16 22.8801 23.184 21.9121 23.152 20.8881L22.696 8.43212H26.08L26.488 20.6721C26.52 21.7121 26.48 22.7521 26.368 23.7921C26.272 24.8321 26.056 25.8161 25.72 26.7441C25.4 27.6721 24.928 28.4961 24.304 29.2161C23.68 29.9361 22.872 30.5041 21.88 30.9201C20.904 31.3361 19.696 31.5441 18.256 31.5441C17.216 31.5441 16.232 31.4241 15.304 31.1841C14.392 30.9441 13.584 30.5681 12.88 30.0561C12.176 29.5601 11.624 28.9201 11.224 28.1361C10.824 27.3521 10.624 26.4161 10.624 25.3281ZM44.1091 26.1201C42.9891 26.1201 42.0611 26.0401 41.3251 25.8801C40.6051 25.7041 40.0371 25.4401 39.6211 25.0881C39.2051 24.7201 38.9091 24.2641 38.7331 23.7201C38.5571 23.1761 38.4531 22.5281 38.4211 21.7761L37.9171 8.43212H41.2771L41.7811 20.1681C41.8131 20.9041 41.8931 21.4561 42.0211 21.8241C42.1491 22.1921 42.3891 22.4401 42.7411 22.5681C43.1091 22.6961 43.6451 22.7601 44.3491 22.7601C44.9571 22.7601 45.3891 22.9201 45.6451 23.2401C45.9171 23.5441 46.0531 23.9281 46.0531 24.3921C46.0531 24.8881 45.8851 25.3041 45.5491 25.6401C45.2131 25.9601 44.7331 26.1201 44.1091 26.1201ZM31.1971 26.1201C30.7651 26.1201 30.3251 26.0801 29.8771 26.0001C29.4451 25.9361 29.1411 25.8881 28.9651 25.8561L29.4211 22.3761C30.5251 22.5201 31.5971 22.5521 32.6371 22.4721C33.6931 22.3761 34.6371 22.1201 35.4691 21.7041C36.3171 21.2721 36.9891 20.6481 37.4851 19.8321C37.9811 19.0001 38.2291 17.9281 38.2291 16.6161L39.5251 20.3841C39.3331 21.4721 39.0051 22.3761 38.5411 23.0961C38.0931 23.8001 37.5571 24.3601 36.9331 24.7761C36.3251 25.1761 35.6771 25.4721 34.9891 25.6641C34.3011 25.8561 33.6291 25.9761 32.9731 26.0241C32.3171 26.0881 31.7251 26.1201 31.1971 26.1201ZM36.4051 22.8321C36.1651 22.3681 35.8211 21.8241 35.3731 21.2001C34.9251 20.5601 34.3731 19.8561 33.7171 19.0881C33.0771 18.3041 32.3411 17.4801 31.5091 16.6161C30.6771 15.7361 29.7571 14.8321 28.7491 13.9041L30.8371 11.6241C32.3251 13.0321 33.5331 14.2161 34.4611 15.1761C35.3891 16.1361 36.1251 16.9441 36.6691 17.6001C37.2291 18.2401 37.6531 18.7921 37.9411 19.2561C38.2451 19.7201 38.5011 20.1681 38.7091 20.6001L36.4051 22.8321ZM44.125 26.1201L44.365 22.7601C45.229 22.7601 46.085 22.7121 46.933 22.6161C47.781 22.5201 48.605 22.3761 49.405 22.1841C50.205 21.9921 50.965 21.7441 51.685 21.4401C52.421 21.1361 53.109 20.7681 53.749 20.3361C53.269 20.0481 52.749 19.8001 52.189 19.5921C51.629 19.3841 51.029 19.2321 50.389 19.1361C49.765 19.0241 49.101 18.9681 48.397 18.9681C48.141 18.9681 47.869 18.9761 47.581 18.9921C47.309 19.0081 47.029 19.0401 46.741 19.0881C46.453 19.1201 46.165 19.1681 45.877 19.2321L45.397 15.9441C45.861 15.8161 46.349 15.7281 46.861 15.6801C47.389 15.6161 47.853 15.5841 48.253 15.5841C49.117 15.5841 49.909 15.6801 50.629 15.8721C51.365 16.0641 52.037 16.3041 52.645 16.5921C53.269 16.8801 53.845 17.1681 54.373 17.4561C54.917 17.7441 55.429 17.9841 55.909 18.1761C56.405 18.3681 56.885 18.4641 57.349 18.4641H58.237L58.621 21.6561C57.933 21.6881 57.285 21.8241 56.677 22.0641C56.085 22.2881 55.493 22.5761 54.901 22.9281C54.325 23.2641 53.701 23.6161 53.029 23.9841C52.373 24.3521 51.629 24.6961 50.797 25.0161C49.965 25.3361 49.005 25.6001 47.917 25.8081C46.829 26.0161 45.565 26.1201 44.125 26.1201Z" fill="white"/>
<path d="M3.756 17.1441C2.424 17.1441 1.08 16.7481 0.336 16.1721L0.996 14.7081C1.704 15.2241 2.76 15.5841 3.768 15.5841C4.92 15.5841 5.388 15.2001 5.388 14.6841C5.388 13.1121 0.504 14.1921 0.504 11.0721C0.504 9.64412 1.656 8.45612 4.044 8.45612C5.1 8.45612 6.18 8.70812 6.96 9.20012L6.36 10.6761C5.58 10.2321 4.776 10.0161 4.032 10.0161C2.88 10.0161 2.436 10.4481 2.436 10.9761C2.436 12.5241 7.32 11.4561 7.32 14.5401C7.32 15.9441 6.156 17.1441 3.756 17.1441ZM8.64834 17.0001V8.60012H10.5923V17.0001H8.64834ZM16.2218 8.60012C18.4658 8.60012 19.8698 9.76412 19.8698 11.6481C19.8698 13.5201 18.4658 14.6841 16.2218 14.6841H14.5298V17.0001H12.5858V8.60012H16.2218ZM16.1138 13.1001C17.3018 13.1001 17.9018 12.5601 17.9018 11.6481C17.9018 10.7241 17.3018 10.1841 16.1138 10.1841H14.5298V13.1001H16.1138Z" fill="#690277"/>
</svg>
