<svg width="529" height="300" viewBox="0 0 529 300" fill="none" xmlns="http://www.w3.org/2000/svg">
<path d="M123.2 214.4C123.2 211.333 123.467 207.733 124 203.6C124.533 199.467 125.533 194.8 127 189.6C128.467 184.267 130.667 178.333 133.6 171.8L158.2 180.4C156.733 184.533 155.467 188.333 154.4 191.8C153.333 195.133 152.533 198.267 152 201.2C151.467 204 151.2 206.8 151.2 209.6C151.2 216.4 152.667 222 155.6 226.4C158.667 230.8 162.933 234.067 168.4 236.2C173.867 238.333 180.2 239.4 187.4 239.4C197 239.4 204.6 237.8 210.2 234.6C215.8 231.4 219.867 226.933 222.4 221.2C224.933 215.6 226.467 209.067 227 201.6C227.667 194 227.867 185.933 227.6 177.4L223.8 73.6H252L255.4 175.6C255.667 184.267 255.333 192.933 254.4 201.6C253.6 210.267 251.8 218.467 249 226.2C246.333 233.933 242.4 240.8 237.2 246.8C232 252.8 225.267 257.533 217 261C208.867 264.467 198.8 266.2 186.8 266.2C178.133 266.2 169.933 265.2 162.2 263.2C154.6 261.2 147.867 258.067 142 253.8C136.133 249.667 131.533 244.333 128.2 237.8C124.867 231.267 123.2 223.467 123.2 214.4ZM402.242 221C392.909 221 385.176 220.333 379.042 219C373.042 217.533 368.309 215.333 364.842 212.4C361.376 209.333 358.909 205.533 357.442 201C355.976 196.467 355.109 191.067 354.842 184.8L350.642 73.6H378.642L382.842 171.4C383.109 177.533 383.776 182.133 384.842 185.2C385.909 188.267 387.909 190.333 390.842 191.4C393.909 192.467 398.376 193 404.242 193C409.309 193 412.909 194.333 415.042 197C417.309 199.533 418.442 202.733 418.442 206.6C418.442 210.733 417.042 214.2 414.242 217C411.442 219.667 407.442 221 402.242 221ZM294.642 221C291.042 221 287.376 220.667 283.642 220C280.042 219.467 277.509 219.067 276.042 218.8L279.842 189.8C289.042 191 297.976 191.267 306.642 190.6C315.442 189.8 323.309 187.667 330.242 184.2C337.309 180.6 342.909 175.4 347.042 168.6C351.176 161.667 353.242 152.733 353.242 141.8L364.042 173.2C362.442 182.267 359.709 189.8 355.842 195.8C352.109 201.667 347.642 206.333 342.442 209.8C337.376 213.133 331.976 215.6 326.242 217.2C320.509 218.8 314.909 219.8 309.442 220.2C303.976 220.733 299.042 221 294.642 221ZM338.042 193.6C336.042 189.733 333.176 185.2 329.442 180C325.709 174.667 321.109 168.8 315.642 162.4C310.309 155.867 304.176 149 297.242 141.8C290.309 134.467 282.642 126.933 274.242 119.2L291.642 100.2C304.042 111.933 314.109 121.8 321.842 129.8C329.576 137.8 335.709 144.533 340.242 150C344.909 155.333 348.442 159.933 350.842 163.8C353.376 167.667 355.509 171.4 357.242 175L338.042 193.6ZM402.375 221L404.375 193C411.575 193 418.708 192.6 425.775 191.8C432.842 191 439.708 189.8 446.375 188.2C453.042 186.6 459.375 184.533 465.375 182C471.508 179.467 477.242 176.4 482.575 172.8C478.575 170.4 474.242 168.333 469.575 166.6C464.908 164.867 459.908 163.6 454.575 162.8C449.375 161.867 443.842 161.4 437.975 161.4C435.842 161.4 433.575 161.467 431.175 161.6C428.908 161.733 426.575 162 424.175 162.4C421.775 162.667 419.375 163.067 416.975 163.6L412.975 136.2C416.842 135.133 420.908 134.4 425.175 134C429.575 133.467 433.442 133.2 436.775 133.2C443.975 133.2 450.575 134 456.575 135.6C462.708 137.2 468.308 139.2 473.375 141.6C478.575 144 483.375 146.4 487.775 148.8C492.308 151.2 496.575 153.2 500.575 154.8C504.708 156.4 508.708 157.2 512.575 157.2H519.975L523.175 183.8C517.442 184.067 512.042 185.2 506.975 187.2C502.042 189.067 497.108 191.467 492.175 194.4C487.375 197.2 482.175 200.133 476.575 203.2C471.108 206.267 464.908 209.133 457.975 211.8C451.042 214.467 443.042 216.667 433.975 218.4C424.908 220.133 414.375 221 402.375 221Z" fill="#2A2A2F"/>
<path d="M37.56 144.44C24.24 144.44 10.8 140.48 3.36 134.72L9.96 120.08C17.04 125.24 27.6 128.84 37.68 128.84C49.2 128.84 53.88 125 53.88 119.84C53.88 104.12 5.04 114.92 5.04 83.72C5.04 69.44 16.56 57.56 40.44 57.56C51 57.56 61.8 60.08 69.6 65L63.6 79.76C55.8 75.32 47.76 73.16 40.32 73.16C28.8 73.16 24.36 77.48 24.36 82.76C24.36 98.24 73.2 87.56 73.2 118.4C73.2 132.44 61.56 144.44 37.56 144.44ZM86.4834 143V59H105.923V143H86.4834ZM162.218 59C184.658 59 198.698 70.64 198.698 89.48C198.698 108.2 184.658 119.84 162.218 119.84H145.298V143H125.858V59H162.218ZM161.138 104C173.018 104 179.018 98.6 179.018 89.48C179.018 80.24 173.018 74.84 161.138 74.84H145.298V104H161.138Z" fill="#690277"/>
</svg>
