<?xml version="1.0" standalone="no"?>
<!DOCTYPE svg PUBLIC "-//W3C//DTD SVG 20010904//EN"
 "http://www.w3.org/TR/2001/REC-SVG-20010904/DTD/svg10.dtd">
<svg version="1.0" xmlns="http://www.w3.org/2000/svg"
 width="960.000000pt" height="960.000000pt" viewBox="0 0 960.000000 960.000000"
 preserveAspectRatio="xMidYMid meet">
<metadata>
Created by potrace 1.14, written by Peter Selinger 2001-2017
</metadata>
<g transform="translate(0.000000,960.000000) scale(0.100000,-0.100000)"
fill="#000000" stroke="none">
<path d="M537 6324 c-1 -2 -18 -6 -37 -9 -19 -3 -53 -11 -75 -16 -22 -6 -47
-12 -55 -14 -9 -2 -44 -18 -79 -36 -68 -36 -140 -108 -172 -173 -28 -56 -31
-70 -34 -161 -2 -74 13 -150 36 -180 68 -87 120 -127 209 -162 60 -24 92 -34
100 -31 3 1 14 -3 25 -9 11 -6 36 -14 55 -17 29 -5 83 -18 170 -40 99 -26 166
-71 175 -116 2 -12 7 -25 9 -28 9 -9 -23 -73 -46 -93 -60 -50 -217 -65 -374
-35 -79 16 -259 93 -275 118 -6 9 -53 -81 -86 -167 -9 -22 -20 -45 -25 -51
-18 -24 154 -107 277 -134 28 -7 59 -14 70 -16 24 -6 125 -15 175 -16 48 -1
200 11 209 16 4 3 23 8 41 11 19 3 40 11 47 17 7 6 13 7 13 2 0 -4 5 -3 12 4
7 7 19 12 28 12 10 0 27 9 40 20 13 11 27 20 33 20 24 0 117 115 140 174 34
85 33 219 -3 289 -28 56 -79 110 -137 144 -42 25 -183 78 -232 87 -46 9 -115
25 -153 36 -21 5 -53 14 -71 18 -56 15 -106 43 -133 75 -22 26 -25 38 -21 77
13 118 178 165 417 117 38 -8 101 -32 156 -60 l50 -25 12 26 c6 15 23 56 37
92 14 36 31 75 37 87 14 29 6 39 -55 67 -86 38 -184 67 -257 73 -56 5 -250 10
-253 7z"/>
<path d="M3636 6213 c2 -65 6 -181 9 -258 3 -77 7 -198 10 -270 3 -71 8 -200
11 -285 3 -85 7 -204 9 -265 2 -60 4 -110 5 -110 0 0 2 -58 5 -130 2 -71 7
-215 11 -320 15 -389 8 -673 -21 -838 -15 -87 -51 -206 -66 -221 -5 -6 -9 -16
-9 -23 0 -24 -65 -116 -118 -169 -95 -93 -222 -146 -407 -170 -40 -5 -230 -4
-280 1 -321 35 -519 204 -551 471 -18 149 2 271 81 513 25 75 41 138 37 142
-4 3 -41 18 -82 32 -41 14 -140 48 -220 76 -145 51 -172 58 -168 44 1 -5 -11
-33 -26 -65 -15 -31 -29 -62 -30 -70 -2 -7 -6 -20 -9 -28 -27 -67 -70 -217
-92 -323 -25 -127 -30 -183 -28 -347 1 -147 8 -195 46 -325 6 -19 66 -140 84
-169 48 -78 162 -194 249 -253 142 -96 349 -172 541 -198 18 -3 54 -8 80 -11
69 -9 346 -9 425 0 73 8 90 11 158 25 25 6 59 13 75 16 17 4 44 13 62 21 17 8
37 14 45 14 8 0 18 3 22 8 4 4 11 7 14 7 14 1 119 59 187 103 70 45 235 200
235 220 0 6 6 15 13 19 21 12 109 168 144 253 45 108 93 272 108 370 3 14 7
39 10 55 14 80 37 379 36 480 0 26 -11 408 -16 550 -3 88 -8 221 -10 295 -2
74 -7 209 -10 300 -8 201 -12 322 -21 595 -8 256 -11 338 -13 348 0 4 -122 7
-270 7 l-269 0 4 -117z"/>
<path d="M6070 6253 c3 -43 5 -126 5 -185 0 -60 2 -108 5 -108 3 0 5 -39 6
-88 1 -82 5 -201 21 -592 12 -313 6 -456 -23 -552 -3 -9 -7 -25 -9 -35 -2 -10
-7 -29 -12 -42 -9 -23 -10 -22 -44 25 -153 212 -538 623 -994 1058 l-90 86
-50 -54 c-27 -30 -86 -93 -130 -142 -44 -48 -97 -106 -118 -128 l-38 -40 63
-59 c130 -122 157 -148 313 -309 88 -90 183 -190 210 -222 28 -33 58 -66 68
-75 10 -9 43 -46 73 -83 30 -37 65 -80 79 -95 40 -45 47 -54 114 -138 35 -44
88 -115 118 -157 30 -43 59 -81 65 -84 12 -8 -117 -74 -143 -74 -10 0 -20 -4
-23 -9 -5 -7 -70 -25 -78 -21 -2 1 -15 -3 -31 -9 -93 -36 -317 -50 -552 -36
-60 4 -123 8 -140 8 -23 2 -30 -2 -31 -18 -2 -24 -13 -111 -19 -145 -7 -44
-15 -101 -20 -155 -3 -28 -8 -63 -10 -76 -3 -13 -8 -51 -11 -84 -4 -33 -8 -63
-11 -67 -2 -5 6 -8 19 -9 13 0 30 -2 38 -4 109 -22 191 -30 330 -29 188 0 322
11 430 34 25 6 56 12 70 14 14 3 25 5 25 6 0 1 7 3 15 5 12 2 81 21 110 30 45
14 169 76 219 109 29 20 55 36 58 36 3 0 37 33 77 73 65 65 87 91 130 152 12
16 15 17 19 5 65 -208 114 -280 239 -354 142 -83 312 -111 673 -111 289 1 442
14 625 55 52 12 85 19 120 26 14 3 34 8 45 11 11 4 25 8 31 9 30 5 167 50 234
77 180 71 300 131 595 300 161 92 268 144 375 180 76 26 98 31 180 42 86 11
85 11 84 36 -3 40 -14 145 -19 181 -8 52 -13 97 -21 178 -12 133 -4 125 -127
126 -101 2 -191 16 -230 36 -10 5 -26 11 -35 13 -9 2 -55 21 -102 43 -47 22
-88 39 -91 39 -4 -1 -15 5 -25 15 -19 16 -349 181 -370 184 -6 1 -27 9 -45 17
-33 15 -179 61 -189 60 -3 -1 -12 3 -20 7 -9 5 -36 11 -60 15 -25 4 -47 8 -50
10 -14 9 -147 18 -255 18 -158 0 -282 -12 -402 -38 -46 -10 -71 -20 -68 -28 2
-7 6 -32 9 -57 3 -25 8 -61 11 -80 6 -37 21 -139 30 -205 3 -22 8 -56 12 -75
5 -34 9 -62 12 -88 0 -7 5 -11 9 -8 5 3 31 8 58 11 27 4 56 8 64 11 79 21 390
22 540 0 87 -12 119 -18 155 -28 22 -5 51 -12 64 -15 13 -2 32 -8 43 -14 10
-5 18 -8 18 -5 0 3 17 -2 38 -10 20 -8 46 -18 57 -23 11 -4 64 -29 118 -55
l98 -48 -36 -25 c-65 -44 -258 -140 -355 -176 -90 -34 -135 -50 -135 -47 0 0
-26 -8 -57 -19 -32 -11 -58 -17 -58 -14 0 3 -7 0 -15 -7 -8 -7 -15 -10 -15 -7
0 3 -17 1 -37 -4 -64 -16 -76 -19 -138 -30 -184 -34 -282 -45 -480 -54 -71 -3
-136 -8 -142 -10 -7 -3 -13 0 -13 5 0 6 -9 6 -24 0 -13 -5 -26 -7 -27 -5 -2 1
-39 6 -82 9 -112 9 -160 23 -206 62 -62 53 -87 145 -96 349 -2 55 -7 165 -10
245 -3 80 -8 181 -10 225 -4 78 -13 281 -20 460 -2 50 -6 153 -10 230 -3 77
-8 185 -10 240 -3 55 -7 156 -10 225 -3 69 -6 153 -7 188 l-2 62 -271 0 -270
0 5 -77z"/>
<path d="M1385 5638 c0 -366 2 -669 5 -672 3 -2 28 -5 55 -5 28 -1 59 -1 70
-2 11 0 25 0 30 0 91 3 112 3 120 1 6 -1 15 -2 20 -1 10 1 15 1340 5 1342 -3
1 -73 2 -155 3 l-151 1 1 -667z"/>
<path d="M2016 6300 c-2 -3 -2 -304 -2 -669 1 -637 2 -664 19 -667 11 -1 21
-5 24 -8 3 -2 15 -1 27 4 13 4 29 4 36 0 8 -5 21 -5 30 0 9 5 22 5 29 1 7 -5
29 -5 49 -1 21 3 49 3 65 -1 18 -5 27 -3 28 4 1 7 2 91 3 187 1 147 3 175 16
177 8 1 103 4 210 6 213 5 288 19 392 75 83 44 198 170 198 217 0 8 4 15 8 15
5 0 9 6 9 13 1 6 6 35 11 62 25 118 -1 269 -61 360 -38 58 -47 68 -101 109
-75 57 -181 98 -287 112 -56 7 -700 11 -703 4z m718 -278 c81 -37 126 -105
128 -192 3 -123 -51 -199 -162 -231 -41 -11 -325 -21 -360 -12 -13 3 -15 38
-15 234 l0 231 180 -4 c160 -3 185 -6 229 -26z"/>
</g>
</svg>
